<svg xmlns="http://www.w3.org/2000/svg" width="56.215" height="57.793" viewBox="0 0 56.215 57.793">
  <path id="call" d="M58.7,63.793a41.192,41.192,0,0,1-18.933-4.816,64.369,64.369,0,0,1-16.9-12.522,66.069,66.069,0,0,1-12.18-17.378A44.28,44.28,0,0,1,6,9.612,3.542,3.542,0,0,1,7.015,7.043,3.349,3.349,0,0,1,9.513,6H20.444a2.72,2.72,0,0,1,1.913.763,3.579,3.579,0,0,1,1.054,2.047l2.108,10.114a5.932,5.932,0,0,1-.039,2.047,3.12,3.12,0,0,1-.82,1.565l-7.808,8.107a66.437,66.437,0,0,0,9.8,13,54.288,54.288,0,0,0,12.3,9.391l7.417-7.866a4.312,4.312,0,0,1,1.8-1.244,3.515,3.515,0,0,1,2.03-.12l9.291,2.087a3.31,3.31,0,0,1,1.952,1.2,3.463,3.463,0,0,1,.781,2.247V60.181A3.542,3.542,0,0,1,61.2,62.749,3.349,3.349,0,0,1,58.7,63.793ZM14.51,26.227l6.324-6.582-1.8-8.829H10.685a28.355,28.355,0,0,0,.937,6.863,65.941,65.941,0,0,0,2.889,8.548ZM43.32,55.365a38.26,38.26,0,0,0,6.949,2.488,35.713,35.713,0,0,0,7.261,1.124V50.388L49.488,48.7ZM14.51,26.227ZM43.32,55.365Z" transform="translate(-6 -6)"/>
</svg>
