<svg xmlns="http://www.w3.org/2000/svg" width="29.875" height="59.141" viewBox="0 0 29.875 59.141">
  <path id="facebbok" d="M77.657,31.5H84.14V58.187a.954.954,0,0,0,.954.954H96.085a.954.954,0,0,0,.954-.954V31.624h7.453a.954.954,0,0,0,.948-.845l1.132-9.825a.954.954,0,0,0-.947-1.063H97.04V13.732c0-1.857,1-2.8,2.972-2.8h5.613a.954.954,0,0,0,.954-.954V.961a.954.954,0,0,0-.954-.954H97.889C97.834,0,97.713,0,97.535,0a14.822,14.822,0,0,0-9.692,3.654,10.164,10.164,0,0,0-3.38,9.035v7.2H77.657a.954.954,0,0,0-.954.954v9.7A.954.954,0,0,0,77.657,31.5Z" transform="translate(-76.703)"/>
</svg>
